<svg width="42" height="24" viewBox="0 0 42 24" fill="none" xmlns="http://www.w3.org/2000/svg">
<path d="M4.08801 11.6933C4.28076 11.3751 4.74119 11.3713 4.93909 11.6864L6.32918 13.8995C6.37277 13.9689 6.43276 14.0266 6.50385 14.0673L8.35545 15.1292C8.66753 15.3081 8.69415 15.7482 8.40592 15.9635L6.45451 17.4211C6.41543 17.4502 6.38083 17.485 6.35181 17.5242L4.91721 19.4628C4.71518 19.7358 4.30558 19.7323 4.1083 19.4558L2.73485 17.5311C2.70364 17.4874 2.6656 17.449 2.62217 17.4173L0.631165 15.9675C0.336328 15.7528 0.363147 15.3049 0.681495 15.1269L2.57247 14.0697C2.64802 14.0274 2.71131 13.9663 2.75615 13.8923L4.08801 11.6933Z" fill="#B4B3B3"/>
<path d="M12.4434 19V8.09091H14.4818V9.86648H14.6167C14.844 9.26515 15.2157 8.7964 15.7318 8.46023C16.2479 8.11932 16.8658 7.94886 17.5855 7.94886C18.3147 7.94886 18.9254 8.11932 19.4179 8.46023C19.915 8.80114 20.282 9.26989 20.5187 9.86648H20.6324C20.8928 9.28409 21.3071 8.82008 21.8753 8.47443C22.4434 8.12405 23.1205 7.94886 23.9065 7.94886C24.8961 7.94886 25.7034 8.259 26.3284 8.87926C26.9581 9.49953 27.273 10.4347 27.273 11.6847V19H25.1494V11.8835C25.1494 11.1449 24.9482 10.6098 24.5457 10.2784C24.1433 9.94697 23.6627 9.78125 23.104 9.78125C22.4127 9.78125 21.8753 9.99432 21.4917 10.4205C21.1082 10.8419 20.9165 11.384 20.9165 12.0469V19H18.8V11.7486C18.8 11.1567 18.6153 10.6809 18.246 10.321C17.8767 9.96117 17.3961 9.78125 16.8042 9.78125C16.4018 9.78125 16.0301 9.88778 15.6892 10.1009C15.353 10.3092 15.0808 10.6004 14.8724 10.9744C14.6688 11.3485 14.567 11.7817 14.567 12.2741V19H12.4434ZM34.8209 19.2202C33.7461 19.2202 32.8205 18.9905 32.0439 18.5312C31.2722 18.0672 30.6756 17.4162 30.2542 16.5781C29.8375 15.7353 29.6292 14.7481 29.6292 13.6165C29.6292 12.4991 29.8375 11.5142 30.2542 10.6619C30.6756 9.80966 31.2627 9.14441 32.0155 8.66619C32.7731 8.18797 33.6585 7.94886 34.6718 7.94886C35.2873 7.94886 35.8839 8.05066 36.4616 8.25426C37.0392 8.45786 37.5577 8.77746 38.017 9.21307C38.4762 9.64867 38.8384 10.2145 39.1036 10.9105C39.3687 11.6018 39.5013 12.4422 39.5013 13.4318V14.1847H30.8294V12.5938H37.4204C37.4204 12.035 37.3067 11.5402 37.0795 11.1094C36.8522 10.6738 36.5326 10.3305 36.1206 10.0795C35.7134 9.8286 35.2352 9.70312 34.686 9.70312C34.0894 9.70312 33.5686 9.84991 33.1235 10.1435C32.6831 10.4323 32.3422 10.8111 32.1008 11.2798C31.864 11.7438 31.7456 12.2481 31.7456 12.7926V14.0355C31.7456 14.7647 31.8735 15.3849 32.1292 15.8963C32.3896 16.4077 32.7518 16.7983 33.2158 17.0682C33.6798 17.3333 34.222 17.4659 34.8422 17.4659C35.2447 17.4659 35.6116 17.4091 35.9431 17.2955C36.2745 17.1771 36.561 17.0019 36.8025 16.7699C37.0439 16.5379 37.2286 16.2514 37.3564 15.9105L39.3664 16.2727C39.2054 16.8646 38.9166 17.383 38.4999 17.8281C38.088 18.2685 37.5695 18.6117 36.9445 18.858C36.3242 19.0994 35.6164 19.2202 34.8209 19.2202Z" fill="#B4B3B3"/>
</svg>
