<svg width="22" height="8" viewBox="0 0 22 8" fill="none" xmlns="http://www.w3.org/2000/svg">
<path d="M1.78551 7.1108C1.50426 7.1108 1.26278 7.01136 1.06108 6.8125C0.862216 6.6108 0.762784 6.36932 0.762784 6.08807C0.762784 5.80966 0.862216 5.57102 1.06108 5.37216C1.26278 5.1733 1.50426 5.07386 1.78551 5.07386C2.05824 5.07386 2.29688 5.1733 2.50142 5.37216C2.70597 5.57102 2.80824 5.80966 2.80824 6.08807C2.80824 6.27557 2.75994 6.44744 2.66335 6.60369C2.5696 6.7571 2.44602 6.88068 2.29261 6.97443C2.1392 7.06534 1.97017 7.1108 1.78551 7.1108ZM4.29865 7V0.454545H6.02876V1.60938H6.10547C6.24183 1.22585 6.46911 0.923295 6.78729 0.701704C7.10547 0.480114 7.48615 0.369318 7.92933 0.369318C8.3782 0.369318 8.7603 0.481534 9.07564 0.705966C9.39098 0.927557 9.60121 1.22869 9.70632 1.60938H9.7745C9.90803 1.23438 10.1495 0.934659 10.4989 0.710227C10.8512 0.482955 11.2674 0.369318 11.7475 0.369318C12.3583 0.369318 12.854 0.56392 13.2347 0.953125C13.6183 1.33949 13.81 1.88778 13.81 2.59801V7H11.9989V2.95597C11.9989 2.59233 11.9023 2.3196 11.7092 2.13778C11.516 1.95597 11.2745 1.86506 10.9847 1.86506C10.6552 1.86506 10.3981 1.97017 10.2134 2.1804C10.0288 2.38778 9.93643 2.66193 9.93643 3.00284V7H8.17649V2.91761C8.17649 2.59659 8.08416 2.34091 7.8995 2.15057C7.71768 1.96023 7.47763 1.86506 7.17933 1.86506C6.97763 1.86506 6.79581 1.91619 6.63388 2.01847C6.47479 2.1179 6.34837 2.25852 6.25462 2.44034C6.16087 2.61932 6.11399 2.82955 6.11399 3.07102V7H4.29865ZM18.2269 7.12784C17.5536 7.12784 16.9741 6.99148 16.4883 6.71875C16.0053 6.44318 15.6332 6.05398 15.3718 5.55114C15.1104 5.04545 14.9798 4.44744 14.9798 3.7571C14.9798 3.08381 15.1104 2.4929 15.3718 1.98438C15.6332 1.47585 16.0011 1.07955 16.4755 0.795454C16.9528 0.511364 17.5124 0.369318 18.1545 0.369318C18.5863 0.369318 18.9883 0.43892 19.3604 0.578125C19.7354 0.714489 20.0621 0.920454 20.3406 1.19602C20.6218 1.47159 20.8406 1.81818 20.9968 2.2358C21.1531 2.65057 21.2312 3.13636 21.2312 3.69318V4.19176H15.7042V3.06676H19.5224C19.5224 2.8054 19.4656 2.57386 19.3519 2.37216C19.2383 2.17045 19.0806 2.01278 18.8789 1.89915C18.68 1.78267 18.4485 1.72443 18.1843 1.72443C17.9087 1.72443 17.6644 1.78835 17.4513 1.91619C17.2411 2.04119 17.0763 2.21023 16.957 2.4233C16.8377 2.63352 16.7766 2.8679 16.7738 3.12642V4.19602C16.7738 4.51989 16.8335 4.79972 16.9528 5.03551C17.0749 5.27131 17.2468 5.45312 17.4684 5.58097C17.69 5.70881 17.9528 5.77273 18.2567 5.77273C18.4585 5.77273 18.6431 5.74432 18.8107 5.6875C18.9783 5.63068 19.1218 5.54545 19.2411 5.43182C19.3604 5.31818 19.4513 5.17898 19.5138 5.0142L21.1928 5.125C21.1076 5.52841 20.9329 5.88068 20.6687 6.18182C20.4073 6.48011 20.0692 6.71307 19.6545 6.88068C19.2425 7.04545 18.7667 7.12784 18.2269 7.12784Z" fill="#ADADAD"/>
</svg>
