<svg width="183" height="24" viewBox="0 0 183 24" fill="none" xmlns="http://www.w3.org/2000/svg">
<path d="M106.088 11.6933C106.281 11.3751 106.741 11.3713 106.939 11.6864L108.329 13.8995C108.373 13.9689 108.433 14.0266 108.504 14.0673L110.355 15.1292C110.668 15.3081 110.694 15.7482 110.406 15.9635L108.455 17.4211C108.415 17.4502 108.381 17.485 108.352 17.5242L106.917 19.4628C106.715 19.7358 106.306 19.7323 106.108 19.4558L104.735 17.5311C104.704 17.4874 104.666 17.449 104.622 17.4173L102.631 15.9675C102.336 15.7528 102.363 15.3049 102.681 15.1269L104.572 14.0697C104.648 14.0274 104.711 13.9663 104.756 13.8923L106.088 11.6933Z" fill="black"/>
<path d="M114.428 19V8.09091H116.466V9.86648H116.601C116.828 9.26515 117.2 8.7964 117.716 8.46023C118.232 8.11932 118.85 7.94886 119.57 7.94886C120.299 7.94886 120.91 8.11932 121.402 8.46023C121.899 8.80114 122.266 9.26989 122.503 9.86648H122.616C122.877 9.28409 123.291 8.82008 123.859 8.47443C124.428 8.12405 125.105 7.94886 125.891 7.94886C126.88 7.94886 127.688 8.259 128.312 8.87926C128.942 9.49953 129.257 10.4347 129.257 11.6847V19H127.134V11.8835C127.134 11.1449 126.932 10.6098 126.53 10.2784C126.127 9.94697 125.647 9.78125 125.088 9.78125C124.397 9.78125 123.859 9.99432 123.476 10.4205C123.092 10.8419 122.901 11.384 122.901 12.0469V19H120.784V11.7486C120.784 11.1567 120.599 10.6809 120.23 10.321C119.861 9.96117 119.38 9.78125 118.788 9.78125C118.386 9.78125 118.014 9.88778 117.673 10.1009C117.337 10.3092 117.065 10.6004 116.857 10.9744C116.653 11.3485 116.551 11.7817 116.551 12.2741V19H114.428ZM136.805 19.2202C135.73 19.2202 134.805 18.9905 134.028 18.5312C133.256 18.0672 132.66 17.4162 132.238 16.5781C131.822 15.7353 131.613 14.7481 131.613 13.6165C131.613 12.4991 131.822 11.5142 132.238 10.6619C132.66 9.80966 133.247 9.14441 134 8.66619C134.757 8.18797 135.643 7.94886 136.656 7.94886C137.271 7.94886 137.868 8.05066 138.446 8.25426C139.023 8.45786 139.542 8.77746 140.001 9.21307C140.46 9.64867 140.823 10.2145 141.088 10.9105C141.353 11.6018 141.485 12.4422 141.485 13.4318V14.1847H132.814V12.5938H139.404C139.404 12.035 139.291 11.5402 139.064 11.1094C138.836 10.6738 138.517 10.3305 138.105 10.0795C137.698 9.8286 137.219 9.70312 136.67 9.70312C136.074 9.70312 135.553 9.84991 135.108 10.1435C134.667 10.4323 134.326 10.8111 134.085 11.2798C133.848 11.7438 133.73 12.2481 133.73 12.7926V14.0355C133.73 14.7647 133.858 15.3849 134.113 15.8963C134.374 16.4077 134.736 16.7983 135.2 17.0682C135.664 17.3333 136.206 17.4659 136.826 17.4659C137.229 17.4659 137.596 17.4091 137.927 17.2955C138.259 17.1771 138.545 17.0019 138.787 16.7699C139.028 16.5379 139.213 16.2514 139.341 15.9105L141.35 16.2727C141.19 16.8646 140.901 17.383 140.484 17.8281C140.072 18.2685 139.554 18.6117 138.929 18.858C138.308 19.0994 137.6 19.2202 136.805 19.2202ZM145.077 11.9261V19H144.211V4.45455H145.077V9.81676H145.163C145.418 9.24858 145.826 8.7964 146.384 8.46023C146.948 8.11932 147.622 7.94886 148.408 7.94886C149.142 7.94886 149.789 8.10511 150.347 8.41761C150.906 8.72538 151.342 9.16809 151.654 9.74574C151.971 10.3187 152.13 11.0052 152.13 11.8054V19H151.271V11.8409C151.271 10.9081 150.994 10.16 150.44 9.59659C149.886 9.03314 149.154 8.75142 148.245 8.75142C147.634 8.75142 147.09 8.884 146.612 9.14915C146.133 9.4143 145.757 9.78598 145.482 10.2642C145.212 10.7377 145.077 11.2917 145.077 11.9261ZM155.715 19V8.09091H156.56V9.79545H156.638C156.875 9.23674 157.275 8.7893 157.838 8.45312C158.402 8.11222 159.043 7.94176 159.763 7.94176C159.839 7.94176 159.915 7.94176 159.99 7.94176C160.066 7.94176 160.137 7.94413 160.203 7.94886V8.82244C160.147 8.81771 160.078 8.81061 159.998 8.80114C159.922 8.78693 159.827 8.77983 159.713 8.77983C159.107 8.77983 158.568 8.91004 158.094 9.17045C157.625 9.43087 157.256 9.79072 156.986 10.25C156.716 10.7045 156.581 11.2254 156.581 11.8125V19H155.715ZM166.255 19.2273C165.355 19.2273 164.555 18.9858 163.854 18.5028C163.153 18.0152 162.602 17.3452 162.199 16.4929C161.797 15.6406 161.596 14.67 161.596 13.581C161.596 12.4872 161.797 11.5166 162.199 10.669C162.602 9.81676 163.153 9.14678 163.854 8.65909C164.555 8.1714 165.355 7.92756 166.255 7.92756C167.154 7.92756 167.954 8.1714 168.655 8.65909C169.356 9.14678 169.908 9.81676 170.31 10.669C170.712 11.5213 170.914 12.492 170.914 13.581C170.914 14.67 170.712 15.6406 170.31 16.4929C169.908 17.3452 169.356 18.0152 168.655 18.5028C167.954 18.9858 167.154 19.2273 166.255 19.2273ZM166.255 18.4247C167.017 18.4247 167.682 18.2093 168.25 17.7784C168.823 17.3475 169.266 16.7652 169.578 16.0312C169.896 15.2973 170.054 14.4806 170.054 13.581C170.054 12.6813 169.896 11.867 169.578 11.1378C169.261 10.4039 168.819 9.8215 168.25 9.39062C167.682 8.95502 167.017 8.73722 166.255 8.73722C165.492 8.73722 164.827 8.95502 164.259 9.39062C163.691 9.8215 163.248 10.4039 162.931 11.1378C162.614 11.867 162.455 12.6813 162.455 13.581C162.455 14.4806 162.611 15.2973 162.924 16.0312C163.241 16.7652 163.684 17.3475 164.252 17.7784C164.825 18.2093 165.492 18.4247 166.255 18.4247ZM174.651 14.7386L174.637 13.4957H174.864L180.319 8.09091H181.448L176.441 13.0625L176.356 13.098L174.651 14.7386ZM173.898 19V4.45455H174.765V19H173.898ZM180.567 19L175.965 13.1832L176.59 12.608L181.675 19H180.567Z" fill="black"/>
<path d="M3.38068 15.2997L3.36648 12.7074H3.7358L8.08239 8.09091H10.625L5.66761 13.3466H5.33381L3.38068 15.2997ZM1.42756 19V4.45455H3.55114V19H1.42756ZM8.31676 19L4.41051 13.8153L5.87358 12.331L10.9233 19H8.31676ZM15.7351 19.2415C15.0438 19.2415 14.4188 19.1136 13.8601 18.858C13.3014 18.5975 12.8587 18.2211 12.532 17.7287C12.21 17.2363 12.049 16.6326 12.049 15.9176C12.049 15.3021 12.1674 14.7955 12.4041 14.3977C12.6409 14 12.9605 13.6851 13.3629 13.4531C13.7654 13.2211 14.2152 13.0459 14.7124 12.9276C15.2095 12.8092 15.7161 12.7192 16.2322 12.6577C16.8857 12.5819 17.416 12.5204 17.8232 12.473C18.2304 12.4209 18.5263 12.3381 18.7109 12.2244C18.8956 12.1108 18.9879 11.9261 18.9879 11.6705V11.6207C18.9879 11.0005 18.8127 10.5199 18.4624 10.179C18.1167 9.83807 17.6006 9.66761 16.9141 9.66761C16.1991 9.66761 15.6357 9.82623 15.2237 10.1435C14.8165 10.456 14.5348 10.804 14.3786 11.1875L12.3828 10.733C12.6196 10.0701 12.9652 9.53504 13.4197 9.12784C13.879 8.71591 14.407 8.41761 15.0036 8.23295C15.6001 8.04356 16.2275 7.94886 16.8857 7.94886C17.3213 7.94886 17.7829 8.00095 18.2706 8.10511C18.763 8.20455 19.2223 8.3892 19.6484 8.65909C20.0793 8.92898 20.4321 9.31487 20.7067 9.81676C20.9813 10.3139 21.1186 10.9602 21.1186 11.7557V19H19.0447V17.5085H18.9595C18.8222 17.7831 18.6162 18.053 18.3416 18.3182C18.067 18.5833 17.7143 18.8035 17.2834 18.9787C16.8525 19.1539 16.3364 19.2415 15.7351 19.2415ZM16.1967 17.5369C16.7839 17.5369 17.2857 17.4209 17.7024 17.1889C18.1238 16.9569 18.4434 16.6539 18.6612 16.2798C18.8838 15.901 18.995 15.4962 18.995 15.0653V13.6591C18.9193 13.7348 18.7725 13.8059 18.5547 13.8722C18.3416 13.9337 18.0978 13.9882 17.8232 14.0355C17.5485 14.0781 17.281 14.1184 17.0206 14.1562C16.7602 14.1894 16.5424 14.2178 16.3672 14.2415C15.9553 14.2936 15.5788 14.3812 15.2379 14.5043C14.9018 14.6274 14.6319 14.8049 14.4283 15.0369C14.2294 15.2642 14.13 15.5672 14.13 15.946C14.13 16.4716 14.3241 16.8693 14.7124 17.1392C15.1006 17.4044 15.5954 17.5369 16.1967 17.5369ZM24.1175 19V4.45455H26.2411V9.85938H26.369C26.4921 9.6321 26.6696 9.36932 26.9016 9.07102C27.1336 8.77273 27.4556 8.51231 27.8675 8.28977C28.2795 8.0625 28.824 7.94886 29.5011 7.94886C30.3817 7.94886 31.1677 8.1714 31.859 8.61648C32.5503 9.06155 33.0924 9.70312 33.4854 10.5412C33.8832 11.3793 34.082 12.3878 34.082 13.5668C34.082 14.7457 33.8855 15.7566 33.4925 16.5994C33.0996 17.4375 32.5598 18.0838 31.8732 18.5384C31.1867 18.9882 30.4031 19.2131 29.5224 19.2131C28.8595 19.2131 28.3174 19.1018 27.896 18.8793C27.4793 18.6567 27.1526 18.3963 26.9158 18.098C26.6791 17.7997 26.4968 17.5346 26.369 17.3026H26.1914V19H24.1175ZM26.1985 13.5455C26.1985 14.3125 26.3098 14.9848 26.5323 15.5625C26.7549 16.1402 27.0768 16.5923 27.4982 16.919C27.9196 17.241 28.4357 17.402 29.0465 17.402C29.681 17.402 30.2113 17.2339 30.6374 16.8977C31.0636 16.5568 31.3855 16.0952 31.6033 15.5128C31.8259 14.9304 31.9371 14.2746 31.9371 13.5455C31.9371 12.8258 31.8282 12.1795 31.6104 11.6065C31.3974 11.0336 31.0754 10.5814 30.6445 10.25C30.2184 9.91856 29.6857 9.75284 29.0465 9.75284C28.431 9.75284 27.9102 9.91146 27.484 10.2287C27.0626 10.5459 26.743 10.9886 26.5252 11.5568C26.3074 12.125 26.1985 12.7879 26.1985 13.5455ZM36.4666 19V8.09091H38.5902V19H36.4666ZM37.5391 6.40767C37.1697 6.40767 36.8525 6.28456 36.5874 6.03835C36.3269 5.7874 36.1967 5.48911 36.1967 5.14347C36.1967 4.79309 36.3269 4.49479 36.5874 4.24858C36.8525 3.99763 37.1697 3.87216 37.5391 3.87216C37.9084 3.87216 38.2232 3.99763 38.4837 4.24858C38.7488 4.49479 38.8814 4.79309 38.8814 5.14347C38.8814 5.48911 38.7488 5.7874 38.4837 6.03835C38.2232 6.28456 37.9084 6.40767 37.5391 6.40767ZM41.4471 19V8.09091H43.4996V9.82386H43.6133C43.8121 9.23674 44.1625 8.77509 44.6644 8.43892C45.171 8.09801 45.744 7.92756 46.3832 7.92756C46.5157 7.92756 46.672 7.93229 46.8519 7.94176C47.0366 7.95123 47.181 7.96307 47.2852 7.97727V10.0085C47.1999 9.98485 47.0484 9.95881 46.8306 9.9304C46.6128 9.89725 46.395 9.88068 46.1772 9.88068C45.6753 9.88068 45.2279 9.98722 44.8349 10.2003C44.4466 10.4086 44.1388 10.6998 43.9116 11.0739C43.6843 11.4432 43.5707 11.8646 43.5707 12.3381V19H41.4471ZM57.2976 10.7543L55.3729 11.0952C55.2924 10.849 55.1645 10.6146 54.9893 10.392C54.8189 10.1695 54.5869 9.98722 54.2933 9.84517C53.9998 9.70312 53.6328 9.6321 53.1925 9.6321C52.5911 9.6321 52.0893 9.76705 51.6868 10.0369C51.2843 10.3021 51.0831 10.6454 51.0831 11.0668C51.0831 11.4313 51.218 11.7249 51.4879 11.9474C51.7578 12.17 52.1934 12.3523 52.7947 12.4943L54.5277 12.892C55.5315 13.1241 56.2796 13.4815 56.772 13.9645C57.2644 14.4474 57.5107 15.0748 57.5107 15.8466C57.5107 16.5 57.3213 17.0824 56.9425 17.5938C56.5684 18.1004 56.0452 18.4981 55.3729 18.7869C54.7053 19.0758 53.9311 19.2202 53.0504 19.2202C51.8288 19.2202 50.8321 18.9598 50.0604 18.4389C49.2886 17.9134 48.8151 17.1676 48.6399 16.2017L50.6925 15.8892C50.8203 16.4242 51.0831 16.8291 51.4808 17.1037C51.8786 17.3736 52.397 17.5085 53.0362 17.5085C53.7322 17.5085 54.2886 17.3641 54.7053 17.0753C55.1219 16.7817 55.3303 16.4242 55.3303 16.0028C55.3303 15.6619 55.2024 15.3755 54.9467 15.1435C54.6958 14.9115 54.3099 14.7363 53.7891 14.6179L51.9425 14.2131C50.9245 13.9811 50.1716 13.6117 49.6839 13.1051C49.201 12.5985 48.9595 11.9569 48.9595 11.1804C48.9595 10.5365 49.1394 9.97301 49.4993 9.49006C49.8591 9.0071 50.3563 8.63068 50.9908 8.3608C51.6252 8.08617 52.352 7.94886 53.1712 7.94886C54.3501 7.94886 55.2782 8.20455 55.9553 8.71591C56.6323 9.22254 57.0798 9.90199 57.2976 10.7543ZM59.8455 19V8.09091H61.9691V19H59.8455ZM60.918 6.40767C60.5487 6.40767 60.2314 6.28456 59.9663 6.03835C59.7058 5.7874 59.5756 5.48911 59.5756 5.14347C59.5756 4.79309 59.7058 4.49479 59.9663 4.24858C60.2314 3.99763 60.5487 3.87216 60.918 3.87216C61.2873 3.87216 61.6022 3.99763 61.8626 4.24858C62.1277 4.49479 62.2603 4.79309 62.2603 5.14347C62.2603 5.48911 62.1277 5.7874 61.8626 6.03835C61.6022 6.28456 61.2873 6.40767 60.918 6.40767ZM66.9496 12.5227V19H64.826V8.09091H66.8643V9.86648H66.9993C67.2502 9.28883 67.6432 8.82481 68.1783 8.47443C68.718 8.12405 69.3975 7.94886 70.2166 7.94886C70.96 7.94886 71.611 8.10511 72.1697 8.41761C72.7285 8.72538 73.1617 9.18466 73.4695 9.79545C73.7772 10.4062 73.9311 11.1615 73.9311 12.0611V19H71.8075V12.3168C71.8075 11.526 71.6016 10.9081 71.1896 10.4631C70.7777 10.0133 70.2119 9.78835 69.4922 9.78835C68.9998 9.78835 68.5618 9.89489 68.1783 10.108C67.7995 10.321 67.4988 10.6335 67.2763 11.0455C67.0585 11.4527 66.9496 11.9451 66.9496 12.5227ZM81.353 23.3182C80.4865 23.3182 79.7408 23.2045 79.1158 22.9773C78.4955 22.75 77.9889 22.4493 77.5959 22.0753C77.2029 21.7012 76.9093 21.2917 76.7152 20.8466L78.5405 20.0938C78.6683 20.3021 78.8388 20.5223 79.0518 20.7543C79.2696 20.991 79.5632 21.1922 79.9325 21.358C80.3066 21.5237 80.7872 21.6065 81.3743 21.6065C82.1792 21.6065 82.8445 21.41 83.37 21.017C83.8956 20.6288 84.1584 20.0085 84.1584 19.1562V17.0114H84.0234C83.8956 17.2434 83.7109 17.5014 83.4695 17.7855C83.2327 18.0696 82.906 18.3158 82.4893 18.5241C82.0727 18.7325 81.5305 18.8366 80.8629 18.8366C80.0012 18.8366 79.2247 18.6354 78.5334 18.233C77.8468 17.8258 77.3023 17.2268 76.8999 16.4361C76.5021 15.6406 76.3033 14.6629 76.3033 13.5028C76.3033 12.3428 76.4998 11.3485 76.8928 10.5199C77.2905 9.69129 77.835 9.05682 78.5263 8.61648C79.2176 8.1714 80.0012 7.94886 80.8771 7.94886C81.5542 7.94886 82.1011 8.0625 82.5178 8.28977C82.9344 8.51231 83.2588 8.77273 83.4908 9.07102C83.7275 9.36932 83.9098 9.6321 84.0376 9.85938H84.1939V8.09091H86.2749V19.2415C86.2749 20.179 86.0571 20.9484 85.6214 21.5497C85.1858 22.151 84.5964 22.5961 83.853 22.8849C83.1143 23.1738 82.281 23.3182 81.353 23.3182ZM81.3317 17.0753C81.9425 17.0753 82.4586 16.9332 82.88 16.6491C83.3061 16.3603 83.6281 15.9484 83.8459 15.4134C84.0684 14.8736 84.1797 14.2273 84.1797 13.4744C84.1797 12.7405 84.0708 12.0942 83.853 11.5355C83.6352 10.9768 83.3156 10.5412 82.8942 10.2287C82.4728 9.91146 81.9519 9.75284 81.3317 9.75284C80.6925 9.75284 80.1598 9.91856 79.7337 10.25C79.3075 10.5767 78.9856 11.0218 78.7678 11.5852C78.5547 12.1487 78.4482 12.7784 78.4482 13.4744C78.4482 14.1894 78.5571 14.8168 78.7749 15.3565C78.9927 15.8963 79.3146 16.3177 79.7408 16.6207C80.1716 16.9238 80.7019 17.0753 81.3317 17.0753ZM91.2464 12.5227V19H89.1229V4.45455H91.218V9.86648H91.353C91.6087 9.27936 91.9993 8.81297 92.5249 8.46733C93.0504 8.12169 93.737 7.94886 94.5845 7.94886C95.3326 7.94886 95.986 8.10275 96.5447 8.41051C97.1082 8.71828 97.5438 9.17756 97.8516 9.78835C98.1641 10.3944 98.3203 11.152 98.3203 12.0611V19H96.1967V12.3168C96.1967 11.5166 95.9908 10.8963 95.5788 10.456C95.1669 10.0109 94.594 9.78835 93.8601 9.78835C93.3582 9.78835 92.9084 9.89489 92.5107 10.108C92.1177 10.321 91.8075 10.6335 91.5803 11.0455C91.3577 11.4527 91.2464 11.9451 91.2464 12.5227Z" fill="black"/>
</svg>
